<svg width="1440" height="1440" xmlns="http://www.w3.org/2000/svg"><defs><linearGradient x1="0" y1="0" x2="1" y2="0" gradientUnits="userSpaceOnUse" gradientTransform="rotate(46.362 -401.463 439.792) scale(298.37203)" spreadMethod="pad" id="b"><stop style="stop-opacity:1;stop-color:#0078ff" offset="0"/><stop style="stop-opacity:1;stop-color:#00deff" offset="1"/></linearGradient><clipPath clipPathUnits="userSpaceOnUse" id="a"><path d="M0 1080h1080V0H0Z"/></clipPath></defs><g clip-path="url(#a)" transform="matrix(1.33333 0 0 -1.33333 0 1440)"><path d="M0 0c-7.168 0-13.784 1.103-19.849 3.308-6.064 2.206-11.026 5.513-15.437 9.373-4.411 4.411-7.719 9.373-10.476 15.989-2.205 6.616-3.859 13.783-3.859 22.605v3.86c0 8.269 1.102 14.886 3.859 21.502 2.757 6.065 6.065 11.027 10.476 15.437 4.411 4.411 9.924 7.168 15.437 9.373 6.065 2.206 12.13 3.308 18.746 3.308 7.167 0 13.233-1.102 18.746-2.756 5.513-1.654 9.924-4.411 13.784-7.719 3.859-3.308 6.616-7.168 8.821-11.578 2.205-4.411 3.308-9.373 4.411-14.336H19.297c-1.654 4.411-3.859 8.271-6.616 11.028-2.757 2.756-7.167 3.859-13.233 3.859-3.307 0-6.064-.551-9.372-1.654-2.757-1.103-5.514-2.757-7.72-4.962-2.205-2.206-3.858-5.514-4.961-8.822-1.103-3.308-1.654-7.718-1.654-12.68v-3.86c0-5.513.551-9.924 1.654-13.784 1.103-3.859 2.756-7.167 4.961-9.373 2.206-2.205 4.412-4.41 7.72-5.513 2.756-1.103 6.065-1.654 9.372-1.654 4.962 0 9.373 1.103 12.682 3.86 3.308 2.756 6.064 6.064 7.167 11.026h25.362c-.552-5.513-2.206-10.476-4.411-14.886-2.205-4.411-5.514-8.27-9.373-11.578-3.859-3.309-8.27-5.514-13.783-7.168C12.681.552 6.616 0 0 0" style="fill:#fff;fill-opacity:1;fill-rule:nonzero;stroke:none" transform="translate(562.33 467.223)"/><path d="M0 0c-6.065 0-11.027.552-14.887 1.654-4.41 1.103-7.718 2.757-10.475 5.514-2.757 2.757-4.962 6.064-6.065 11.026-1.102 4.411-1.654 9.925-1.654 17.092v98.14h24.81V38.043c0-3.308 0-6.064.552-7.719.551-2.205 1.103-3.859 2.205-4.962 1.103-1.102 2.205-2.205 4.411-2.757 1.654-.551 3.86-1.102 6.616-1.102h3.86c1.103 0 2.205 0 2.756.551V1.103c-.551 0-1.653 0-2.756-.551-1.103 0-2.206 0-2.757-.552H3.308Z" style="fill:#fff;fill-opacity:1;fill-rule:nonzero;stroke:none" transform="translate(658.815 468.327)"/><path d="M0 0c-4.411 0-8.271 1.103-11.026 3.859-2.757 2.757-3.86 6.065-3.86 9.925 0 3.859 1.103 7.167 3.86 9.924C-8.271 26.464-4.411 27.567 0 27.567s8.271-1.103 11.027-3.859c2.756-2.757 3.86-6.065 3.86-9.924 0-3.86-1.104-7.168-3.86-9.925C8.271 1.103 4.411 0 0 0m-12.681-10.476H12.13v-100.345h-24.811z" style="fill:#fff;fill-opacity:1;fill-rule:nonzero;stroke:none" transform="translate(701.82 580.248)"/><path d="M0 0c-7.168 0-13.784 1.103-19.849 3.308-6.064 2.206-11.026 5.513-15.437 9.373-4.411 4.411-7.719 9.373-10.476 15.989-2.205 6.616-3.859 13.783-3.859 22.605v3.86c0 8.269 1.102 14.886 3.859 21.502 2.757 6.065 6.065 11.027 10.476 15.437 4.411 4.411 9.924 7.168 15.437 9.373 6.065 2.206 12.13 3.308 18.746 3.308 7.167 0 13.232-1.102 18.746-2.756 5.513-1.654 9.924-4.411 13.784-7.719 3.859-3.308 6.616-7.168 8.821-11.578 2.205-4.411 3.308-9.373 4.41-14.336H19.297c-1.654 4.411-3.859 8.271-6.616 11.028-2.757 2.756-7.167 3.859-13.233 3.859-3.307 0-6.064-.551-9.373-1.654-2.756-1.103-5.513-2.757-7.719-4.962-2.205-2.206-3.859-5.514-4.961-8.822-1.103-3.308-1.655-7.718-1.655-12.68v-3.86c0-5.513.552-9.924 1.655-13.784 1.102-3.859 2.756-7.167 4.961-9.373 2.206-2.205 4.412-4.41 7.719-5.513 2.757-1.103 6.066-1.654 9.373-1.654 4.962 0 9.373 1.103 12.681 3.86 3.309 2.756 6.065 6.064 7.168 11.026h25.361c-.551-5.513-2.205-10.476-4.41-14.886-2.205-4.411-5.514-8.27-9.373-11.578-3.859-3.309-8.271-5.514-13.783-7.168C12.681.552 6.616 0 0 0" style="fill:#fff;fill-opacity:1;fill-rule:nonzero;stroke:none" transform="translate(782.867 467.223)"/><path d="M0 0v132.323h25.361V58.994l36.389 41.351h29.222L53.48 57.892 94.831 0H65.059l-28.67 40.8-11.028-12.13V0Z" style="fill:#fff;fill-opacity:1;fill-rule:nonzero;stroke:none" transform="translate(845.169 469.43)"/></g><path d="M195.134 646.409C158.194 610.021 140 575.286 140 540.552V540c0-34.735 18.194-70.021 55.134-106.409 36.389-36.389 71.675-54.583 106.41-55.135h.551c34.734 0 70.021 18.195 106.41 55.135 72.776 72.777 73.328 139.489 0 213.37-36.941 36.388-72.226 54.583-106.961 54.583-35.286 0-70.021-18.195-106.41-55.135m47.967-164.3c-40.248 40.248-39.697 76.636 0 116.333s76.086 40.248 116.334 0c40.248-40.248 39.697-76.636 0-116.333-19.849-19.848-39.146-29.773-57.891-29.773a51.429 51.429 0 0 0-1.521-.022c-18.764-.001-37.057 9.93-56.922 29.795" style="fill:url(#b);stroke:none" transform="matrix(1.33333 0 0 -1.33333 0 1440)"/></svg>