<svg width="21" height="30" fill="none" xmlns="http://www.w3.org/2000/svg"><g clip-path="url(#a)"><mask id="b" style="mask-type:luminance" maskUnits="userSpaceOnUse" x="0" y="0" width="21" height="30"><path d="M21 0H0v30h21V0Z" fill="#fff"/></mask><g mask="url(#b)" fill-rule="evenodd" clip-rule="evenodd"><path d="M20.33 12.543c0 3.7-.842 6.452-2.527 8.255-1.685 1.797-4.284 2.695-7.797 2.695-3.278 0-5.766-.899-7.462-2.695C.848 19.002.001 16.292.002 12.67V.514a.518.518 0 0 1 .515-.517H6.46a.516.516 0 0 1 .515.517v12.42c0 1.479.272 2.617.827 3.42a3.007 3.007 0 0 0 2.354 1.199 2.998 2.998 0 0 0 2.388-1.127c.543-.754.814-1.864.812-3.332V10.77h6.974v1.773Z" fill="#fff"/><path d="M19.79 9.412h-6.434V.54a.543.543 0 0 1 .54-.54h.963c0 1.454.577 2.849 1.603 3.877a5.461 5.461 0 0 0 3.866 1.606v3.929h-.538Z" fill="#fff"/><path d="M16.229 0h3.56a.54.54 0 0 1 .54.54v3.578a4.095 4.095 0 0 1-2.9-1.205A4.12 4.12 0 0 1 16.228.004V0Z" fill="#F4821F"/><path d="M1.168 29.396c.787 0 1.168-.44 1.168-1.086v-1.555h-.564v1.54a.61.61 0 0 1-.606.592.606.606 0 0 1-.607-.592v-1.54H.002v1.56c0 .637.38 1.08 1.167 1.08Zm4.567-.047v-.484H4.488l1.221-1.666v-.443H3.767v.486h1.22l-1.22 1.66v.447h1.969Zm2.631.047a1.19 1.19 0 0 0 1.082-.638l-.474-.23a.695.695 0 0 1-.608.377.85.85 0 0 1-.805-.851.855.855 0 0 1 .805-.852.7.7 0 0 1 .608.377l.475-.233a1.186 1.186 0 0 0-1.082-.634 1.336 1.336 0 0 0-1.358 1.302 1.345 1.345 0 0 0 1.278 1.381h.08Zm4.81-.047-.997-2.594h-.69l-1 2.594h.628l.163-.44h1.109l.159.44h.628Zm-.938-.926h-.807l.404-1.116.403 1.116ZM16.893 30l-.947-1.638a.741.741 0 0 0 .566-.77.81.81 0 0 0-.869-.838h-1.211v2.594h.548v-.92h.403l.875 1.571h.635Zm-1.333-2.058h-.578v-.7h.577a.348.348 0 0 1 .345.182.352.352 0 0 1-.345.518h.001Zm3.399 1.407c.81 0 1.373-.513 1.373-1.295 0-.782-.564-1.3-1.373-1.3h-1.02v2.594l1.02.001Zm0-.486h-.47v-1.621h.47a.755.755 0 0 1 .81.811.779.779 0 0 1-.812.812l.002-.002ZM21 26.706v.009a.485.485 0 0 1-.575.475.481.481 0 0 1-.352-.659.484.484 0 0 1 .445-.299H21v.474Z" fill="#fff"/></g></g><defs><clipPath id="a"><path fill="#fff" d="M0 0h21v30H0z"/></clipPath></defs></svg>