<svg width="82" height="21" fill="none" xmlns="http://www.w3.org/2000/svg"><path d="M19.743 3.983c-.012-1.189-.38-2.386-1.424-3.052-1.044-.666-2.368-.636-3.167.351-.065.08-.204.218-.163.335.04.117.292.09.398.142a.479.479 0 0 1 .248.468c0 .227-.01 2.393-.017 5.38L7.771 7.56a15.983 15.983 0 0 1 .474-5.31c.089-.343.335-.763.309-1.116a.235.235 0 0 0-.046-.136C8.438.91 8.304.925 8.195.953c-.678.18-1.304.52-1.825.991a4.828 4.828 0 0 0-.957 1.228C4.406 4.982 4.33 7.549 4.33 7.549c-.052 1.659-.117 5.021 1.641 8.512 0 0 1.235 2.447 2.997 3.051.348.12.442.04.473 0 .137-.177-.157-.48-.244-.615a5.508 5.508 0 0 1-.416-.787 8.615 8.615 0 0 1-.528-1.761 24.784 24.784 0 0 1-.555-5.55h7.923v7.023a1.218 1.218 0 0 0 .616 1.132c.265.12.548.192.837.214.5.08 1.01.08 1.51 0a1.59 1.59 0 0 0 .798-.372c.35-.325.355-.766.355-1.21 0-3.534.032-7.056.028-10.585-.003-.87-.01-1.743-.02-2.618Z" fill="#fff"/><path d="M8.89 19.986c-3.195-.93-4.44-4.342-5.126-7.293-.148-.643-.29-1.276-.37-1.934-.255-1.984-.244-4.165.396-6.079-.487.11-.709.532-.994.874-1.04 1.25-1.123 2.71-1.173 4.16a12.866 12.866 0 0 0 1.395 6.35 11.11 11.11 0 0 0 1.5 2.163A10.382 10.382 0 0 0 6.49 19.93a5.964 5.964 0 0 1-3.035-1.837 11.456 11.456 0 0 1-.894-1.328c-.507-.885-1.14-1.99-1.464-3.468-.09-.414-.151-.836-.314-.853-.233-.024-.5.816-.555.998A4.808 4.808 0 0 0 0 14.856c.013 1.116.844 3.286 2.835 4.758 0 0 1.74 1.287 4.716 1.386.487.004.965-.134 1.377-.396.257-.186.431-.476-.037-.618ZM60.648 3.569c.02-.585-.029-1.17-.144-1.745a1.877 1.877 0 0 0-.128-.48 1.43 1.43 0 0 0-.518-.639 1.065 1.065 0 0 0-.58-.177c-.144 0-.288.011-.432.011h-.598c-.389 0-.777 0-1.166.01a1.29 1.29 0 0 0-.926.394c-.296.31-.529.753-.925 1.701-.067.157-.117.29-.154.382-.146.321-2.237 4.872-3.026 6.19-.057.099-.185.309-.347.302-.163-.008-.29-.203-.346-.302-.789-1.318-2.88-5.869-3.028-6.19-.035-.091-.085-.225-.152-.382-.389-.948-.624-1.39-.925-1.701a1.295 1.295 0 0 0-.926-.394c-.388-.015-.777 0-1.166-.01h-.598c-.144 0-.288-.009-.433-.01a1.066 1.066 0 0 0-.579.176c-.232.156-.413.38-.518.64a1.872 1.872 0 0 0-.128.48 7.71 7.71 0 0 0-.146 1.744l-.455 14.049c.005.105.026.208.06.307.24.684 1.111 1.022 1.774 1.032.662.009 1.48-.313 1.764-.93.036-.084.064-.171.083-.26.198-.954.313-8.636.355-11.984 1.823 3.759 3.252 6.565 3.91 7.81.136.257.423.769.948.942.32.109.667.109.987 0 .525-.173.812-.685.945-.941.661-1.239 2.088-4.045 3.913-7.81.043 3.347.157 11.029.355 11.983.02.089.047.176.084.26.285.623 1.09.943 1.763.93.674-.013 1.533-.348 1.773-1.032.034-.1.055-.203.062-.307-.135-4.684-.279-9.367-.432-14.05ZM38.693 1.085c-.38-.481-1.03-.498-1.651-.517-.59-.015-1.342-.035-1.812.49a1.491 1.491 0 0 0-.355.844l-.032 10.369a3.715 3.715 0 0 1-1.367 2.94 4.101 4.101 0 0 1-2 .779 2.17 2.17 0 0 0-.232.015h-.186s-.12 0-.233-.015a4.1 4.1 0 0 1-1.998-.78 3.715 3.715 0 0 1-1.366-2.94l-.034-10.368a1.493 1.493 0 0 0-.353-.845C26.602.533 25.852.553 25.26.568c-.622.019-1.27.036-1.649.517-.213.305-.3.681-.24 1.049v10.853a6.008 6.008 0 0 0 1.25 3.617c1.083 1.426 2.621 2.062 3.095 2.231a8.98 8.98 0 0 0 2.195.487c.83.06 1.662.06 2.491 0a8.978 8.978 0 0 0 2.195-.487c.474-.186 2.012-.813 3.093-2.232a6.001 6.001 0 0 0 1.253-3.616V2.134a1.434 1.434 0 0 0-.25-1.049ZM81.549 6.31a8.537 8.537 0 0 0-3.036-4.372 9.425 9.425 0 0 0-11.445 0 8.554 8.554 0 0 0-3.037 4.371c-1.49 5.003.752 11.385 6.108 12.794 1.74.4 3.546.4 5.285 0 5.375-1.41 7.614-7.791 6.125-12.794Zm-3.982 5.578c-.555 2.367-2.126 4.913-4.776 4.94-2.65-.027-4.216-2.573-4.777-4.94-.54-2.284-.44-4.97.831-7.007a4.597 4.597 0 0 1 1.675-1.654 4.57 4.57 0 0 1 4.54 0 4.599 4.599 0 0 1 1.675 1.654c1.273 2.042 1.371 4.729.832 7.013v-.006Z" fill="#fff"/></svg>