<svg width="56" height="19" fill="none" xmlns="http://www.w3.org/2000/svg"><path d="M24.124 17.753h-4.54L22.42.312h4.541l-2.838 17.44ZM15.764.312l-4.33 11.996-.512-2.584v.001L9.396 1.882S9.21.312 7.24.312H.084L0 .607s2.189.455 4.75 1.993l3.945 15.153h4.73L20.65.312h-4.887Zm35.715 17.44h4.17L52.012.313h-3.65c-1.686 0-2.096 1.299-2.096 1.299l-6.773 16.142h4.734l.947-2.591h5.772l.532 2.59Zm-4.997-6.169 2.386-6.527 1.342 6.527h-3.728ZM39.85 4.506 40.498.76s-2-.76-4.085-.76C34.16 0 28.81.985 28.81 5.774c0 4.506 6.28 4.562 6.28 6.928 0 2.367-5.633 1.943-7.492.45l-.675 3.917s2.027.985 5.125.985c3.099 0 7.774-1.605 7.774-5.972 0-4.534-6.337-4.957-6.337-6.928 0-1.972 4.422-1.719 6.365-.648Z" fill="#fff"/><path d="M10.922 9.725 9.396 1.882S9.21.312 7.24.312H.084L0 .607s3.44.713 6.74 3.384c3.154 2.552 4.182 5.734 4.182 5.734Z" fill="#E6A540"/></svg>