<svg width="40" height="30" fill="none" xmlns="http://www.w3.org/2000/svg"><g clip-path="url(#a)"><path d="M7.25 29.934v-1.99c0-.762-.48-1.261-1.305-1.261-.413 0-.86.131-1.17.564-.24-.363-.584-.564-1.1-.564-.344 0-.689.1-.96.464v-.398h-.721v3.185h.72v-1.759c0-.564.308-.831.789-.831.48 0 .72.298.72.831v1.76h.721v-1.76c0-.564.344-.831.789-.831.48 0 .72.298.72.831v1.76h.797Zm10.688-3.185H16.77v-.963h-.721v.963h-.653v.63h.653v1.461c0 .73.308 1.16 1.133 1.16.308 0 .652-.1.893-.232l-.209-.6a1.185 1.185 0 0 1-.62.167c-.344 0-.48-.201-.48-.53V27.38h1.168v-.63h.004Zm6.117-.07a.984.984 0 0 0-.86.464v-.398h-.721v3.185h.72v-1.793c0-.53.24-.832.69-.832.135 0 .307.035.447.066l.209-.665c-.144-.027-.349-.027-.485-.027Zm-9.243.333c-.344-.233-.825-.333-1.341-.333-.825 0-1.373.398-1.373 1.028 0 .53.412.831 1.133.928l.344.035c.376.066.584.166.584.332 0 .232-.276.399-.756.399s-.86-.167-1.101-.333l-.344.53c.376.267.892.398 1.409.398.96 0 1.513-.433 1.513-1.028 0-.565-.448-.862-1.133-.963l-.344-.035c-.309-.035-.549-.1-.549-.297 0-.232.24-.364.62-.364.413 0 .825.166 1.034.267l.304-.564Zm19.171-.333a.984.984 0 0 0-.86.464v-.398h-.721v3.185h.72v-1.793c0-.53.24-.832.69-.832.135 0 .307.035.448.066l.208-.657c-.14-.035-.345-.035-.485-.035Zm-9.207 1.662c0 .963.688 1.659 1.753 1.659.48 0 .825-.1 1.17-.363l-.345-.565a1.407 1.407 0 0 1-.86.298c-.585 0-.997-.399-.997-1.029 0-.599.412-.997.996-1.028.309 0 .585.1.86.298l.345-.565c-.344-.267-.688-.363-1.169-.363-1.065-.004-1.753.696-1.753 1.658Zm6.665 0V26.75h-.72v.398c-.24-.298-.585-.464-1.033-.464-.929 0-1.65.696-1.65 1.658 0 .963.721 1.659 1.65 1.659.48 0 .825-.166 1.033-.464v.398h.72v-1.593Zm-2.646 0c0-.564.376-1.028.997-1.028.584 0 .997.433.997 1.028 0 .565-.413 1.029-.997 1.029-.617-.035-.997-.468-.997-1.029Zm-8.623-1.662c-.96 0-1.65.665-1.65 1.659 0 .997.69 1.658 1.686 1.658.48 0 .961-.131 1.341-.433l-.344-.499c-.276.201-.62.333-.96.333-.45 0-.893-.201-.998-.762h2.438v-.267c.032-1.024-.588-1.689-1.513-1.689Zm0 .6c.449 0 .757.266.825.76h-1.718c.069-.428.377-.76.893-.76Zm17.902 1.062v-2.853h-.72v1.659c-.24-.298-.584-.464-1.033-.464-.929 0-1.65.696-1.65 1.658 0 .963.721 1.659 1.65 1.659.48 0 .825-.166 1.033-.464v.398h.72v-1.593Zm-2.646 0c0-.564.377-1.028.997-1.028.585 0 .997.433.997 1.028 0 .565-.412 1.029-.997 1.029-.62-.035-.997-.468-.997-1.029Zm-24.123 0V26.75h-.72v.398c-.24-.298-.585-.464-1.033-.464-.929 0-1.65.696-1.65 1.658 0 .963.721 1.659 1.65 1.659.48 0 .824-.166 1.033-.464v.398h.72v-1.593Zm-2.678 0c0-.564.376-1.028.997-1.028.584 0 .997.433.997 1.028 0 .565-.413 1.029-.997 1.029-.62-.035-.997-.468-.997-1.029Z" fill="#fff"/><path d="M25.396 2.556H14.572v18.78h10.824V2.557Z" fill="#FF5A00"/><path d="M15.292 11.946c0-3.816 1.858-7.202 4.708-9.39A12.582 12.582 0 0 0 12.37 0C5.532 0 0 5.343 0 11.946s5.532 11.946 12.37 11.946c2.886 0 5.532-.963 7.63-2.556-2.854-2.157-4.708-5.574-4.708-9.39Z" fill="#EB001B"/><path d="M40 11.946c0 6.603-5.532 11.946-12.37 11.946-2.886 0-5.532-.963-7.63-2.556 2.886-2.192 4.708-5.574 4.708-9.39 0-3.816-1.858-7.202-4.708-9.39A12.561 12.561 0 0 1 27.626 0C34.468 0 40 5.378 40 11.946Z" fill="#F79E1B"/></g><defs><clipPath id="a"><path fill="#fff" d="M0 0h40v30H0z"/></clipPath></defs></svg>