<svg width="141" height="51" viewBox="0 0 141 51" fill="none" xmlns="http://www.w3.org/2000/svg">
<g clip-path="url(#clip0_1_1439)">
<path d="M132.5 0.799805H8.5C4.08172 0.799805 0.5 4.38153 0.5 8.7998V42.7998C0.5 47.2181 4.08172 50.7998 8.5 50.7998H132.5C136.918 50.7998 140.5 47.2181 140.5 42.7998V8.7998C140.5 4.38153 136.918 0.799805 132.5 0.799805Z" fill="#1D242F"/>
<path d="M30.2973 26.38C30.319 24.699 31.2217 23.1084 32.6539 22.2279C31.7504 20.9376 30.2371 20.1195 28.6627 20.0702C26.9835 19.894 25.3555 21.075 24.4998 21.075C23.6275 21.075 22.31 20.0877 20.8913 20.1169C19.0421 20.1767 17.3181 21.228 16.4184 22.8448C14.4844 26.1932 15.927 31.1142 17.7796 33.8209C18.7065 35.1462 19.7898 36.6267 21.2072 36.5742C22.5943 36.5166 23.1123 35.6897 24.7866 35.6897C26.4454 35.6897 26.9314 36.5742 28.3776 36.5408C29.866 36.5166 30.8038 35.2095 31.6981 33.8716C32.3641 32.9273 32.8766 31.8836 33.2166 30.7791C31.4674 30.0393 30.2994 28.2791 30.2973 26.38Z" fill="white"/>
<path d="M27.5656 18.2904C28.3772 17.3162 28.777 16.064 28.6802 14.7998C27.4403 14.93 26.2951 15.5226 25.4726 16.4594C24.6683 17.3747 24.2497 18.6049 24.3289 19.8208C25.5692 19.8336 26.7885 19.2571 27.5656 18.2904Z" fill="white"/>
<path d="M41.7 19.9798H42.45C42.5767 19.7265 42.6833 19.4131 42.77 19.0398C42.8567 18.6665 42.9233 18.2665 42.97 17.8398C43.0167 17.4065 43.05 16.9631 43.07 16.5098C43.09 16.0498 43.1 15.6131 43.1 15.1998V13.7998H47.65V19.9798H48.5V22.0998H47.6V20.7998H42.6V22.0998H41.7V19.9798ZM46.71 19.9798V14.6198H44.02V15.3998C44.02 16.4131 43.9733 17.2898 43.88 18.0298C43.7933 18.7698 43.65 19.4198 43.45 19.9798H46.71ZM51.707 20.8998C51.367 20.8998 51.0437 20.8465 50.737 20.7398C50.4304 20.6265 50.1604 20.4598 49.927 20.2398C49.6937 20.0131 49.507 19.7298 49.367 19.3898C49.227 19.0498 49.157 18.6531 49.157 18.1998V17.9998C49.157 17.5731 49.227 17.1965 49.367 16.8698C49.507 16.5431 49.6937 16.2731 49.927 16.0598C50.1604 15.8398 50.4304 15.6765 50.737 15.5698C51.0437 15.4565 51.367 15.3998 51.707 15.3998C52.047 15.3998 52.3704 15.4565 52.677 15.5698C52.9837 15.6765 53.2537 15.8398 53.487 16.0598C53.7204 16.2731 53.907 16.5431 54.047 16.8698C54.187 17.1965 54.257 17.5731 54.257 17.9998V18.1998C54.257 18.6531 54.187 19.0498 54.047 19.3898C53.907 19.7298 53.7204 20.0131 53.487 20.2398C53.2537 20.4598 52.9837 20.6265 52.677 20.7398C52.3704 20.8465 52.047 20.8998 51.707 20.8998ZM51.707 20.0998C51.907 20.0998 52.107 20.0665 52.307 19.9998C52.507 19.9265 52.6837 19.8165 52.837 19.6698C52.9904 19.5165 53.1137 19.3198 53.207 19.0798C53.307 18.8398 53.357 18.5465 53.357 18.1998V17.9998C53.357 17.6798 53.307 17.4065 53.207 17.1798C53.1137 16.9531 52.9904 16.7665 52.837 16.6198C52.6837 16.4731 52.507 16.3665 52.307 16.2998C52.107 16.2331 51.907 16.1998 51.707 16.1998C51.507 16.1998 51.307 16.2331 51.107 16.2998C50.907 16.3665 50.7304 16.4731 50.577 16.6198C50.4237 16.7665 50.297 16.9531 50.197 17.1798C50.1037 17.4065 50.057 17.6798 50.057 17.9998V18.1998C50.057 18.5465 50.1037 18.8398 50.197 19.0798C50.297 19.3198 50.4237 19.5165 50.577 19.6698C50.7304 19.8165 50.907 19.9265 51.107 19.9998C51.307 20.0665 51.507 20.0998 51.707 20.0998ZM57.5531 20.8998C57.2131 20.8998 56.8965 20.8465 56.6031 20.7398C56.3098 20.6265 56.0565 20.4598 55.8431 20.2398C55.6298 20.0131 55.4598 19.7298 55.3331 19.3898C55.2131 19.0498 55.1531 18.6531 55.1531 18.1998V17.9998C55.1531 17.5731 55.2198 17.1965 55.3531 16.8698C55.4865 16.5431 55.6631 16.2731 55.8831 16.0598C56.1031 15.8398 56.3565 15.6765 56.6431 15.5698C56.9365 15.4565 57.2398 15.3998 57.5531 15.3998C57.8665 15.3998 58.1465 15.4431 58.3931 15.5298C58.6465 15.6165 58.8631 15.7365 59.0431 15.8898C59.2298 16.0431 59.3798 16.2231 59.4931 16.4298C59.6131 16.6365 59.6998 16.8598 59.7531 17.0998H58.8531C58.7998 16.9731 58.7365 16.8565 58.6631 16.7498C58.5965 16.6365 58.5098 16.5398 58.4031 16.4598C58.3031 16.3798 58.1831 16.3165 58.0431 16.2698C57.9031 16.2231 57.7398 16.1998 57.5531 16.1998C57.3598 16.1998 57.1731 16.2365 56.9931 16.3098C56.8131 16.3765 56.6531 16.4831 56.5131 16.6298C56.3731 16.7698 56.2598 16.9531 56.1731 17.1798C56.0931 17.4065 56.0531 17.6798 56.0531 17.9998V18.1998C56.0531 18.5398 56.0931 18.8331 56.1731 19.0798C56.2598 19.3198 56.3731 19.5165 56.5131 19.6698C56.6531 19.8165 56.8131 19.9265 56.9931 19.9998C57.1731 20.0665 57.3598 20.0998 57.5531 20.0998C57.8798 20.0998 58.1531 20.0198 58.3731 19.8598C58.5998 19.6998 58.7598 19.4798 58.8531 19.1998H59.7531C59.6265 19.7265 59.3665 20.1431 58.9731 20.4498C58.5798 20.7498 58.1065 20.8998 57.5531 20.8998ZM62.1623 16.2798H60.3523V15.4998H64.8523V16.2798H63.0423V20.7998H62.1623V16.2798ZM66.75 22.8998C66.65 22.8998 66.55 22.8898 66.45 22.8698V22.0698C66.55 22.0898 66.65 22.0998 66.75 22.0998C66.85 22.0998 66.9367 22.0831 67.01 22.0498C67.0833 22.0165 67.1533 21.9531 67.22 21.8598C67.2867 21.7665 67.3567 21.6331 67.43 21.4598C67.51 21.2931 67.6 21.0731 67.7 20.7998L65.45 15.4998H66.43L68.15 19.7998L69.71 15.4998H70.65L68.65 20.7998C68.51 21.1731 68.3767 21.4931 68.25 21.7598C68.1233 22.0265 67.9867 22.2431 67.84 22.4098C67.7 22.5831 67.5433 22.7065 67.37 22.7798C67.1967 22.8598 66.99 22.8998 66.75 22.8998ZM71.6457 15.4998H76.0457V20.7998H75.1657V16.2798H72.5257V20.7998H71.6457V15.4998ZM77.6418 15.4998H78.5218V17.7098H81.2618V15.4998H82.1418V20.7998H81.2618V18.4898H78.5218V20.7998H77.6418V15.4998ZM85.9453 20.8998C85.6053 20.8998 85.282 20.8465 84.9753 20.7398C84.6686 20.6265 84.3986 20.4598 84.1653 20.2398C83.932 20.0131 83.7453 19.7298 83.6053 19.3898C83.4653 19.0498 83.3953 18.6531 83.3953 18.1998V17.9998C83.3953 17.5731 83.4653 17.1965 83.6053 16.8698C83.7453 16.5431 83.932 16.2731 84.1653 16.0598C84.3986 15.8398 84.6686 15.6765 84.9753 15.5698C85.282 15.4565 85.6053 15.3998 85.9453 15.3998C86.2853 15.3998 86.6086 15.4565 86.9153 15.5698C87.222 15.6765 87.492 15.8398 87.7253 16.0598C87.9586 16.2731 88.1453 16.5431 88.2853 16.8698C88.4253 17.1965 88.4953 17.5731 88.4953 17.9998V18.1998C88.4953 18.6531 88.4253 19.0498 88.2853 19.3898C88.1453 19.7298 87.9586 20.0131 87.7253 20.2398C87.492 20.4598 87.222 20.6265 86.9153 20.7398C86.6086 20.8465 86.2853 20.8998 85.9453 20.8998ZM85.9453 20.0998C86.1453 20.0998 86.3453 20.0665 86.5453 19.9998C86.7453 19.9265 86.922 19.8165 87.0753 19.6698C87.2286 19.5165 87.352 19.3198 87.4453 19.0798C87.5453 18.8398 87.5953 18.5465 87.5953 18.1998V17.9998C87.5953 17.6798 87.5453 17.4065 87.4453 17.1798C87.352 16.9531 87.2286 16.7665 87.0753 16.6198C86.922 16.4731 86.7453 16.3665 86.5453 16.2998C86.3453 16.2331 86.1453 16.1998 85.9453 16.1998C85.7453 16.1998 85.5453 16.2331 85.3453 16.2998C85.1453 16.3665 84.9686 16.4731 84.8153 16.6198C84.662 16.7665 84.5353 16.9531 84.4353 17.1798C84.342 17.4065 84.2953 17.6798 84.2953 17.9998V18.1998C84.2953 18.5465 84.342 18.8398 84.4353 19.0798C84.5353 19.3198 84.662 19.5165 84.8153 19.6698C84.9686 19.8165 85.1453 19.9265 85.3453 19.9998C85.5453 20.0665 85.7453 20.0998 85.9453 20.0998ZM92.2414 15.4998H94.5414C95.1947 15.4998 95.6747 15.6365 95.9814 15.9098C96.2881 16.1765 96.4414 16.5231 96.4414 16.9498C96.4414 17.0631 96.4214 17.1798 96.3814 17.2998C96.3414 17.4131 96.2847 17.5198 96.2114 17.6198C96.1447 17.7198 96.0614 17.8065 95.9614 17.8798C95.8681 17.9531 95.7614 18.0098 95.6414 18.0498C95.9681 18.1298 96.2147 18.2831 96.3814 18.5098C96.5547 18.7298 96.6414 18.9898 96.6414 19.2898C96.6414 19.7498 96.4881 20.1165 96.1814 20.3898C95.8747 20.6631 95.3947 20.7998 94.7414 20.7998H92.2414V15.4998ZM94.7414 20.0198C95.1147 20.0198 95.3781 19.9531 95.5314 19.8198C95.6847 19.6865 95.7614 19.4965 95.7614 19.2498C95.7614 18.9965 95.6847 18.8031 95.5314 18.6698C95.3781 18.5298 95.1147 18.4598 94.7414 18.4598H93.1214V20.0198H94.7414ZM94.5414 17.7398C94.9214 17.7398 95.1847 17.6731 95.3314 17.5398C95.4847 17.4065 95.5614 17.2231 95.5614 16.9898C95.5614 16.7698 95.4847 16.5965 95.3314 16.4698C95.1847 16.3431 94.9214 16.2798 94.5414 16.2798H93.1214V17.7398H94.5414Z" fill="white"/>
<path d="M48.192 35.5877H44.216L43.39 37.7997H41.71L45.42 27.9997H47.1L50.81 37.7997H49.018L48.192 35.5877ZM44.762 34.1317H47.646L46.218 30.0997L44.762 34.1317ZM51.9956 30.3797H53.4236V31.6257C53.6476 31.1964 53.979 30.8557 54.4176 30.6037C54.8656 30.3517 55.3696 30.2257 55.9296 30.2257C56.9003 30.2257 57.6656 30.529 58.2256 31.1357C58.7856 31.7424 59.0656 32.657 59.0656 33.8797V34.1597C59.0656 34.7944 58.991 35.3497 58.8416 35.8257C58.6923 36.3017 58.4776 36.6984 58.1976 37.0157C57.927 37.3237 57.6003 37.557 57.2176 37.7157C56.835 37.8744 56.4056 37.9537 55.9296 37.9537C55.3976 37.9537 54.9123 37.837 54.4736 37.6037C54.035 37.3704 53.7223 37.0437 53.5356 36.6237V40.5997H51.9956V30.3797ZM55.5656 36.6097C56.1443 36.6097 56.611 36.409 56.9656 36.0077C57.3203 35.6064 57.4976 34.9904 57.4976 34.1597V33.8797C57.4976 33.0957 57.325 32.517 56.9796 32.1437C56.6343 31.761 56.163 31.5697 55.5656 31.5697C55.3043 31.5697 55.0523 31.6117 54.8096 31.6957C54.567 31.7797 54.3476 31.9057 54.1516 32.0737C53.965 32.2324 53.8156 32.4377 53.7036 32.6897C53.5916 32.9324 53.5356 33.2124 53.5356 33.5297V34.5097C53.5356 34.8644 53.5916 35.1724 53.7036 35.4337C53.8156 35.695 53.965 35.9144 54.1516 36.0917C54.3383 36.269 54.553 36.3997 54.7956 36.4837C55.0383 36.5677 55.295 36.6097 55.5656 36.6097ZM60.6089 30.3797H62.0369V31.6257C62.2609 31.1964 62.5922 30.8557 63.0309 30.6037C63.4789 30.3517 63.9829 30.2257 64.5429 30.2257C65.5136 30.2257 66.2789 30.529 66.8389 31.1357C67.3989 31.7424 67.6789 32.657 67.6789 33.8797V34.1597C67.6789 34.7944 67.6042 35.3497 67.4549 35.8257C67.3056 36.3017 67.0909 36.6984 66.8109 37.0157C66.5402 37.3237 66.2136 37.557 65.8309 37.7157C65.4482 37.8744 65.0189 37.9537 64.5429 37.9537C64.0109 37.9537 63.5256 37.837 63.0869 37.6037C62.6482 37.3704 62.3356 37.0437 62.1489 36.6237V40.5997H60.6089V30.3797ZM64.1789 36.6097C64.7576 36.6097 65.2242 36.409 65.5789 36.0077C65.9336 35.6064 66.1109 34.9904 66.1109 34.1597V33.8797C66.1109 33.0957 65.9382 32.517 65.5929 32.1437C65.2476 31.761 64.7762 31.5697 64.1789 31.5697C63.9176 31.5697 63.6656 31.6117 63.4229 31.6957C63.1802 31.7797 62.9609 31.9057 62.7649 32.0737C62.5782 32.2324 62.4289 32.4377 62.3169 32.6897C62.2049 32.9324 62.1489 33.2124 62.1489 33.5297V34.5097C62.1489 34.8644 62.2049 35.1724 62.3169 35.4337C62.4289 35.695 62.5782 35.9144 62.7649 36.0917C62.9516 36.269 63.1662 36.3997 63.4089 36.4837C63.6516 36.5677 63.9082 36.6097 64.1789 36.6097ZM76.2922 37.9537C75.6575 37.9537 75.1069 37.8837 74.6402 37.7437C74.1735 37.6037 73.7815 37.4077 73.4642 37.1557C73.1562 36.9037 72.9182 36.6097 72.7502 36.2737C72.5822 35.9284 72.4795 35.5504 72.4422 35.1397H74.1222C74.1595 35.3357 74.2202 35.513 74.3042 35.6717C74.3975 35.8304 74.5282 35.9704 74.6962 36.0917C74.8642 36.213 75.0742 36.3064 75.3262 36.3717C75.5875 36.437 75.9095 36.4697 76.2922 36.4697C76.6842 36.4697 77.0155 36.437 77.2862 36.3717C77.5662 36.297 77.7902 36.2037 77.9582 36.0917C78.1355 35.9704 78.2615 35.8304 78.3362 35.6717C78.4202 35.5037 78.4622 35.3264 78.4622 35.1397C78.4622 34.6824 78.2475 34.337 77.8182 34.1037C77.3982 33.8704 76.7402 33.6604 75.8442 33.4737C75.3402 33.3617 74.8922 33.231 74.5002 33.0817C74.1082 32.923 73.7815 32.7317 73.5202 32.5077C73.2589 32.2744 73.0582 31.999 72.9182 31.6817C72.7875 31.355 72.7222 30.9677 72.7222 30.5197C72.7222 30.1557 72.7969 29.8104 72.9462 29.4837C73.1049 29.157 73.3335 28.8724 73.6322 28.6297C73.9309 28.387 74.2995 28.1957 74.7382 28.0557C75.1862 27.9157 75.7042 27.8457 76.2922 27.8457C76.8615 27.8457 77.3609 27.911 77.7902 28.0417C78.2195 28.1724 78.5789 28.359 78.8682 28.6017C79.1669 28.835 79.3955 29.115 79.5542 29.4417C79.7222 29.7684 79.8249 30.1277 79.8622 30.5197H78.1822C78.1075 30.165 77.9162 29.8804 77.6082 29.6657C77.3095 29.4417 76.8709 29.3297 76.2922 29.3297C75.6202 29.3297 75.1349 29.4464 74.8362 29.6797C74.5469 29.913 74.4022 30.193 74.4022 30.5197C74.4022 30.9677 74.5889 31.3037 74.9622 31.5277C75.3355 31.7517 75.9095 31.943 76.6842 32.1017C77.2535 32.223 77.7529 32.363 78.1822 32.5217C78.6209 32.6804 78.9849 32.881 79.2742 33.1237C79.5635 33.357 79.7782 33.637 79.9182 33.9637C80.0675 34.2904 80.1422 34.6824 80.1422 35.1397C80.1422 35.541 80.0629 35.9144 79.9042 36.2597C79.7455 36.605 79.5029 36.9037 79.1762 37.1557C78.8589 37.4077 78.4575 37.6037 77.9722 37.7437C77.4962 37.8837 76.9362 37.9537 76.2922 37.9537ZM84.5609 37.8697C83.7116 37.8697 83.1003 37.6877 82.7269 37.3237C82.3629 36.9597 82.1809 36.3717 82.1809 35.5597V31.6957H81.1309V30.3797H82.1809V28.6997H83.7209V30.3797H85.6109V31.6957H83.7209V35.3497C83.7209 35.7884 83.8003 36.0964 83.9589 36.2737C84.1269 36.4417 84.4443 36.5257 84.9109 36.5257C85.1909 36.5257 85.4709 36.5117 85.7509 36.4837V37.7997C85.5736 37.8184 85.3916 37.8324 85.2049 37.8417C85.0183 37.8604 84.8036 37.8697 84.5609 37.8697ZM90.448 37.9537C89.9347 37.9537 89.454 37.8744 89.006 37.7157C88.5674 37.5477 88.1847 37.305 87.858 36.9877C87.5314 36.6704 87.2747 36.2784 87.088 35.8117C86.9014 35.3357 86.808 34.785 86.808 34.1597V33.8797C86.808 33.2917 86.9014 32.7737 87.088 32.3257C87.2747 31.8684 87.5314 31.4857 87.858 31.1777C88.1847 30.8604 88.5674 30.6224 89.006 30.4637C89.454 30.305 89.9347 30.2257 90.448 30.2257C90.9614 30.2257 91.4374 30.305 91.876 30.4637C92.324 30.6224 92.7114 30.8604 93.038 31.1777C93.3647 31.4857 93.6214 31.8684 93.808 32.3257C93.9947 32.7737 94.088 33.2917 94.088 33.8797V34.1597C94.088 34.785 93.9947 35.3357 93.808 35.8117C93.6214 36.2784 93.3647 36.6704 93.038 36.9877C92.7114 37.305 92.324 37.5477 91.876 37.7157C91.4374 37.8744 90.9614 37.9537 90.448 37.9537ZM90.448 36.6097C90.7187 36.6097 90.9754 36.563 91.218 36.4697C91.47 36.3764 91.6894 36.2317 91.876 36.0357C92.072 35.8397 92.226 35.5877 92.338 35.2797C92.4594 34.9717 92.52 34.5984 92.52 34.1597V33.8797C92.52 33.4784 92.4594 33.133 92.338 32.8437C92.226 32.5544 92.072 32.3164 91.876 32.1297C91.6894 31.943 91.47 31.803 91.218 31.7097C90.9754 31.6164 90.7187 31.5697 90.448 31.5697C90.1774 31.5697 89.916 31.6164 89.664 31.7097C89.4214 31.803 89.202 31.943 89.006 32.1297C88.8194 32.3164 88.6654 32.5544 88.544 32.8437C88.432 33.133 88.376 33.4784 88.376 33.8797V34.1597C88.376 34.5984 88.432 34.9717 88.544 35.2797C88.6654 35.5877 88.8194 35.8397 89.006 36.0357C89.202 36.2317 89.4214 36.3764 89.664 36.4697C89.916 36.563 90.1774 36.6097 90.448 36.6097ZM95.6226 30.3797H97.0506V31.6397C97.1999 31.257 97.4426 30.9257 97.7786 30.6457C98.1239 30.3657 98.5486 30.2257 99.0526 30.2257C99.2859 30.2257 99.4586 30.235 99.5706 30.2537C99.6919 30.2724 99.7759 30.291 99.8226 30.3097V31.7097C99.6639 31.663 99.5192 31.6304 99.3886 31.6117C99.2579 31.5837 99.0992 31.5697 98.9126 31.5697C98.6046 31.5697 98.3386 31.6257 98.1146 31.7377C97.8999 31.8404 97.7226 31.9804 97.5826 32.1577C97.4426 32.3257 97.3352 32.5264 97.2606 32.7597C97.1952 32.9837 97.1626 33.217 97.1626 33.4597V37.7997H95.6226V30.3797ZM104.161 37.9537C103.666 37.9537 103.2 37.879 102.761 37.7297C102.322 37.571 101.935 37.3377 101.599 37.0297C101.272 36.7124 101.011 36.3157 100.815 35.8397C100.619 35.3637 100.521 34.8037 100.521 34.1597V33.8797C100.521 33.2637 100.614 32.727 100.801 32.2697C100.988 31.8124 101.24 31.4344 101.557 31.1357C101.884 30.8277 102.257 30.599 102.677 30.4497C103.097 30.3004 103.545 30.2257 104.021 30.2257C105.15 30.2257 106.014 30.529 106.611 31.1357C107.218 31.7424 107.521 32.6104 107.521 33.7397V34.5237H102.089C102.098 34.9064 102.159 35.233 102.271 35.5037C102.392 35.765 102.546 35.9797 102.733 36.1477C102.929 36.3064 103.148 36.423 103.391 36.4977C103.643 36.5724 103.9 36.6097 104.161 36.6097C104.693 36.6097 105.08 36.5257 105.323 36.3577C105.575 36.1897 105.748 35.9704 105.841 35.6997H107.381C107.232 36.437 106.863 36.997 106.275 37.3797C105.696 37.7624 104.992 37.9537 104.161 37.9537ZM104.091 31.5697C103.83 31.5697 103.578 31.6024 103.335 31.6677C103.102 31.733 102.892 31.8404 102.705 31.9897C102.528 32.1297 102.383 32.3164 102.271 32.5497C102.159 32.7737 102.098 33.049 102.089 33.3757H105.981C105.972 33.0304 105.916 32.741 105.813 32.5077C105.72 32.2744 105.589 32.0877 105.421 31.9477C105.253 31.8077 105.052 31.7097 104.819 31.6537C104.595 31.5977 104.352 31.5697 104.091 31.5697Z" fill="white"/>
</g>
<defs>
<clipPath id="clip0_1_1439">
<rect width="140" height="50" fill="white" transform="translate(0.5 0.799805)"/>
</clipPath>
</defs>
</svg>
