<svg width="49" height="49" viewBox="0 0 49 49" fill="none" xmlns="http://www.w3.org/2000/svg">
<rect x="0.5" y="0.799805" width="48" height="48" rx="10" fill="#FDF5F3"/>
<g clip-path="url(#clip0_1_1349)">
<g clip-path="url(#clip1_1_1349)">
<g clip-path="url(#clip2_1_1349)">
<path d="M27.5 14.7998V24.7998C27.5 25.8998 26.6 26.7998 25.5 26.7998H14.5V20.4198C15.23 21.2898 16.35 21.8298 17.59 21.7998C18.6 21.7798 19.51 21.3898 20.19 20.7398C20.5 20.4798 20.76 20.1498 20.96 19.7898C21.32 19.1798 21.52 18.4598 21.5 17.7098C21.47 16.5398 20.95 15.5098 20.14 14.7998H27.5Z" stroke="#D92E15" stroke-width="1.5" stroke-linecap="round" stroke-linejoin="round"/>
<path d="M34.5 26.7998V29.7998C34.5 31.4598 33.16 32.7998 31.5 32.7998H30.5C30.5 31.6998 29.6 30.7998 28.5 30.7998C27.4 30.7998 26.5 31.6998 26.5 32.7998H22.5C22.5 31.6998 21.6 30.7998 20.5 30.7998C19.4 30.7998 18.5 31.6998 18.5 32.7998H17.5C15.84 32.7998 14.5 31.4598 14.5 29.7998V26.7998H25.5C26.6 26.7998 27.5 25.8998 27.5 24.7998V17.7998H29.34C30.06 17.7998 30.72 18.1898 31.08 18.8098L32.79 21.7998H31.5C30.95 21.7998 30.5 22.2498 30.5 22.7998V25.7998C30.5 26.3498 30.95 26.7998 31.5 26.7998H34.5Z" stroke="#D92E15" stroke-width="1.5" stroke-linecap="round" stroke-linejoin="round"/>
<path d="M20.5 34.7998C21.6046 34.7998 22.5 33.9044 22.5 32.7998C22.5 31.6952 21.6046 30.7998 20.5 30.7998C19.3954 30.7998 18.5 31.6952 18.5 32.7998C18.5 33.9044 19.3954 34.7998 20.5 34.7998Z" stroke="#D92E15" stroke-width="1.5" stroke-linecap="round" stroke-linejoin="round"/>
<path d="M28.5 34.7998C29.6046 34.7998 30.5 33.9044 30.5 32.7998C30.5 31.6952 29.6046 30.7998 28.5 30.7998C27.3954 30.7998 26.5 31.6952 26.5 32.7998C26.5 33.9044 27.3954 34.7998 28.5 34.7998Z" stroke="#D92E15" stroke-width="1.5" stroke-linecap="round" stroke-linejoin="round"/>
<path d="M34.5 24.7998V26.7998H31.5C30.95 26.7998 30.5 26.3498 30.5 25.7998V22.7998C30.5 22.2498 30.95 21.7998 31.5 21.7998H32.79L34.5 24.7998Z" stroke="#D92E15" stroke-width="1.5" stroke-linecap="round" stroke-linejoin="round"/>
<path d="M21.4999 17.71C21.5199 18.46 21.3199 19.1801 20.9599 19.7901C20.7599 20.1501 20.4999 20.4801 20.1899 20.7401C19.5099 21.3901 18.5999 21.7801 17.5899 21.8001C16.3499 21.8301 15.2299 21.2901 14.4999 20.4201C14.3599 20.2701 14.2399 20.1001 14.1299 19.9301C13.7399 19.3401 13.5199 18.6401 13.4999 17.8901C13.4699 16.6301 14.0299 15.4801 14.9299 14.7301C15.6099 14.1701 16.4699 13.8201 17.4099 13.8001C18.4599 13.7801 19.4199 14.1601 20.1399 14.8001C20.9499 15.5101 21.4699 16.54 21.4999 17.71Z" stroke="#D92E15" stroke-width="1.5" stroke-miterlimit="10" stroke-linecap="round" stroke-linejoin="round"/>
<path d="M15.9399 17.8296L16.95 18.7896L19.0399 16.7695" stroke="#D92E15" stroke-width="1.5" stroke-linecap="round" stroke-linejoin="round"/>
</g>
</g>
</g>
<defs>
<clipPath id="clip0_1_1349">
<rect width="24" height="24" fill="white" transform="translate(12.5 12.7998)"/>
</clipPath>
<clipPath id="clip1_1_1349">
<rect width="24" height="24" fill="white" transform="translate(12.5 12.7998)"/>
</clipPath>
<clipPath id="clip2_1_1349">
<rect width="24" height="24" fill="white" transform="translate(12.5 12.7998)"/>
</clipPath>
</defs>
</svg>
