<svg width="49" height="49" viewBox="0 0 49 49" fill="none" xmlns="http://www.w3.org/2000/svg">
<rect x="0.809998" y="0.799805" width="48" height="48" rx="10" fill="#FDF5F3"/>
<g clip-path="url(#clip0_1_1382)">
<g clip-path="url(#clip1_1_1382)">
<path d="M18.81 18.7998L23.31 23.2998M18.81 18.7998H15.81L14.81 15.7998L15.81 14.7998L18.81 15.7998V18.7998ZM32.069 15.5408L29.4414 18.1684C29.0454 18.5645 28.8473 18.7625 28.7732 18.9908C28.7079 19.1916 28.7079 19.408 28.7732 19.6088C28.8473 19.8372 29.0454 20.0352 29.4414 20.4312L29.6786 20.6684C30.0746 21.0645 30.2727 21.2625 30.501 21.3366C30.7018 21.4019 30.9182 21.4019 31.119 21.3366C31.3473 21.2625 31.5454 21.0645 31.9414 20.6684L34.3993 18.2105C34.664 18.8547 34.81 19.5602 34.81 20.2998C34.81 23.3374 32.3476 25.7998 29.31 25.7998C28.9438 25.7998 28.5859 25.764 28.2398 25.6957C27.7536 25.5999 27.5105 25.5519 27.3632 25.5666C27.2065 25.5822 27.1293 25.6057 26.9905 25.68C26.8599 25.7499 26.729 25.8808 26.467 26.1428L19.31 33.2998C18.4816 34.1282 17.1384 34.1282 16.31 33.2998C15.4816 32.4714 15.4816 31.1282 16.31 30.2998L23.467 23.1428C23.729 22.8808 23.8599 22.7499 23.9298 22.6193C24.0041 22.4805 24.0276 22.4033 24.0432 22.2466C24.0579 22.0993 24.0099 21.8562 23.9141 21.37C23.8458 21.0239 23.81 20.666 23.81 20.2998C23.81 17.2622 26.2724 14.7998 29.31 14.7998C30.3155 14.7998 31.258 15.0696 32.069 15.5408ZM24.8101 27.7997L30.31 33.2997C31.1384 34.1281 32.4816 34.1281 33.31 33.2997C34.1384 32.4713 34.1384 31.1281 33.31 30.2997L28.7853 25.7751C28.465 25.7448 28.1527 25.687 27.8508 25.6041C27.4617 25.4973 27.0349 25.5749 26.7497 25.8601L24.8101 27.7997Z" stroke="#D92E15" stroke-width="2" stroke-linecap="round" stroke-linejoin="round"/>
</g>
</g>
<defs>
<clipPath id="clip0_1_1382">
<rect width="24" height="24" fill="white" transform="translate(12.81 12.7998)"/>
</clipPath>
<clipPath id="clip1_1_1382">
<rect width="24" height="24" fill="white" transform="translate(12.81 12.7998)"/>
</clipPath>
</defs>
</svg>
