<svg width="49" height="49" viewBox="0 0 49 49" fill="none" xmlns="http://www.w3.org/2000/svg">
<rect x="0.130005" y="0.799805" width="48" height="48" rx="10" fill="#FDF5F3"/>
<g clip-path="url(#clip0_1_1404)">
<g clip-path="url(#clip1_1_1404)">
<path d="M25.13 23.7998H29.93C31.0501 23.7998 31.6102 23.7998 32.038 24.0178C32.4143 24.2095 32.7203 24.5155 32.912 24.8918C33.13 25.3196 33.13 25.8797 33.13 26.9998V33.7998M25.13 33.7998V18.9998C25.13 17.8797 25.13 17.3196 24.912 16.8918C24.7203 16.5155 24.4143 16.2095 24.038 16.0178C23.6102 15.7998 23.0501 15.7998 21.93 15.7998H18.33C17.2099 15.7998 16.6498 15.7998 16.222 16.0178C15.8457 16.2095 15.5397 16.5155 15.348 16.8918C15.13 17.3196 15.13 17.8797 15.13 18.9998V33.7998M34.13 33.7998H14.13M18.63 19.7998H21.63M18.63 23.7998H21.63M18.63 27.7998H21.63" stroke="#D92E15" stroke-width="2" stroke-linecap="round" stroke-linejoin="round"/>
</g>
</g>
<defs>
<clipPath id="clip0_1_1404">
<rect width="24" height="24" fill="white" transform="translate(12.13 12.7998)"/>
</clipPath>
<clipPath id="clip1_1_1404">
<rect width="24" height="24" fill="white" transform="translate(12.13 12.7998)"/>
</clipPath>
</defs>
</svg>
