<svg width="49" height="49" viewBox="0 0 49 49" fill="none" xmlns="http://www.w3.org/2000/svg">
<rect x="0.469971" y="0.799805" width="48" height="48" rx="10" fill="#FDF5F3"/>
<g clip-path="url(#clip0_1_1393)">
<g clip-path="url(#clip1_1_1393)">
<path d="M18.47 22.7998V26.7998M30.47 22.7998V26.7998M14.47 20.9998V28.5998C14.47 29.7199 14.47 30.28 14.688 30.7078C14.8797 31.0841 15.1857 31.3901 15.562 31.5818C15.9898 31.7998 16.5499 31.7998 17.67 31.7998H31.27C32.3901 31.7998 32.9502 31.7998 33.378 31.5818C33.7543 31.3901 34.0603 31.0841 34.252 30.7078C34.47 30.28 34.47 29.7199 34.47 28.5998V20.9998C34.47 19.8797 34.47 19.3196 34.252 18.8918C34.0603 18.5155 33.7543 18.2095 33.378 18.0178C32.9502 17.7998 32.3901 17.7998 31.27 17.7998H17.67C16.5499 17.7998 15.9898 17.7998 15.562 18.0178C15.1857 18.2095 14.8797 18.5155 14.688 18.8918C14.47 19.3196 14.47 19.8797 14.47 20.9998ZM26.97 24.7998C26.97 26.1805 25.8507 27.2998 24.47 27.2998C23.0893 27.2998 21.97 26.1805 21.97 24.7998C21.97 23.4191 23.0893 22.2998 24.47 22.2998C25.8507 22.2998 26.97 23.4191 26.97 24.7998Z" stroke="#D92E15" stroke-width="2" stroke-linecap="round" stroke-linejoin="round"/>
</g>
</g>
<defs>
<clipPath id="clip0_1_1393">
<rect width="24" height="24" fill="white" transform="translate(12.47 12.7998)"/>
</clipPath>
<clipPath id="clip1_1_1393">
<rect width="24" height="24" fill="white" transform="translate(12.47 12.7998)"/>
</clipPath>
</defs>
</svg>
