<svg width="49" height="49" viewBox="0 0 49 49" fill="none" xmlns="http://www.w3.org/2000/svg">
<rect x="0.780029" y="0.799805" width="48" height="48" rx="10" fill="#FDF5F3"/>
<g clip-path="url(#clip0_1_1415)">
<g clip-path="url(#clip1_1_1415)">
<path d="M24.78 29.7998C24.78 32.5612 27.0186 34.7998 29.78 34.7998C32.5414 34.7998 34.78 32.5612 34.78 29.7998C34.78 27.0384 32.5414 24.7998 29.78 24.7998C27.0186 24.7998 24.78 27.0384 24.78 29.7998ZM24.78 29.7998C24.78 28.674 25.1521 27.6351 25.78 26.7993V17.7998M24.78 29.7998C24.78 30.6252 24.98 31.4038 25.3341 32.0899C24.4917 32.8016 22.5459 33.2998 20.28 33.2998C17.2425 33.2998 14.78 32.4044 14.78 31.2998V17.7998M25.78 17.7998C25.78 18.9044 23.3176 19.7998 20.28 19.7998C17.2425 19.7998 14.78 18.9044 14.78 17.7998M25.78 17.7998C25.78 16.6952 23.3176 15.7998 20.28 15.7998C17.2425 15.7998 14.78 16.6952 14.78 17.7998M14.78 26.7998C14.78 27.9044 17.2425 28.7998 20.28 28.7998C22.469 28.7998 24.3593 28.3348 25.2446 27.6616M25.78 22.2998C25.78 23.4044 23.3176 24.2998 20.28 24.2998C17.2425 24.2998 14.78 23.4044 14.78 22.2998" stroke="#D92E15" stroke-width="2" stroke-linecap="round" stroke-linejoin="round"/>
</g>
</g>
<defs>
<clipPath id="clip0_1_1415">
<rect width="24" height="24" fill="white" transform="translate(12.78 12.7998)"/>
</clipPath>
<clipPath id="clip1_1_1415">
<rect width="24" height="24" fill="white" transform="translate(12.78 12.7998)"/>
</clipPath>
</defs>
</svg>
