<svg width="141" height="51" viewBox="0 0 141 51" fill="none" xmlns="http://www.w3.org/2000/svg">
<g clip-path="url(#clip0_1_1447)">
<path d="M132.5 0.799805H8.5C4.08172 0.799805 0.5 4.38153 0.5 8.7998V42.7998C0.5 47.2181 4.08172 50.7998 8.5 50.7998H132.5C136.918 50.7998 140.5 47.2181 140.5 42.7998V8.7998C140.5 4.38153 136.918 0.799805 132.5 0.799805Z" fill="#1D242F"/>
<g filter="url(#filter0_dd_1_1447)">
<path d="M15.842 16.093C15.6271 16.3205 15.5 16.6736 15.5 17.1309V33.468C15.5 33.926 15.6271 34.2784 15.842 34.5059L15.8967 34.5591L25.0485 25.4073V25.2994V25.1916L15.8967 16.0391L15.842 16.093Z" fill="url(#paint0_linear_1_1447)"/>
<path d="M28.0984 28.4587L25.0483 25.4072V25.2993V25.1915L28.0992 22.1406L28.1679 22.1798L31.7824 24.2334C32.8143 24.8199 32.8143 25.7795 31.7824 26.3667L28.1679 28.4203L28.0984 28.4587Z" fill="url(#paint1_linear_1_1447)"/>
<g filter="url(#filter1_d_1_1447)">
<path d="M28.1683 28.4201L25.048 25.2998L15.8423 34.5063C16.1821 34.8667 16.7442 34.9111 17.3773 34.5521L28.1683 28.4201Z" fill="url(#paint2_linear_1_1447)"/>
</g>
<path d="M28.1683 22.1793L17.3773 16.0481C16.7442 15.6883 16.1821 15.7334 15.8423 16.0939L25.0487 25.3003L28.1683 22.1793Z" fill="url(#paint3_linear_1_1447)"/>
</g>
<path d="M41.7 19.9798H42.45C42.5767 19.7265 42.6833 19.4131 42.77 19.0398C42.8567 18.6665 42.9233 18.2665 42.97 17.8398C43.0167 17.4065 43.05 16.9631 43.07 16.5098C43.09 16.0498 43.1 15.6131 43.1 15.1998V13.7998H47.65V19.9798H48.5V22.0998H47.6V20.7998H42.6V22.0998H41.7V19.9798ZM46.71 19.9798V14.6198H44.02V15.3998C44.02 16.4131 43.9733 17.2898 43.88 18.0298C43.7933 18.7698 43.65 19.4198 43.45 19.9798H46.71ZM51.707 20.8998C51.367 20.8998 51.0437 20.8465 50.737 20.7398C50.4304 20.6265 50.1604 20.4598 49.927 20.2398C49.6937 20.0131 49.507 19.7298 49.367 19.3898C49.227 19.0498 49.157 18.6531 49.157 18.1998V17.9998C49.157 17.5731 49.227 17.1965 49.367 16.8698C49.507 16.5431 49.6937 16.2731 49.927 16.0598C50.1604 15.8398 50.4304 15.6765 50.737 15.5698C51.0437 15.4565 51.367 15.3998 51.707 15.3998C52.047 15.3998 52.3704 15.4565 52.677 15.5698C52.9837 15.6765 53.2537 15.8398 53.487 16.0598C53.7204 16.2731 53.907 16.5431 54.047 16.8698C54.187 17.1965 54.257 17.5731 54.257 17.9998V18.1998C54.257 18.6531 54.187 19.0498 54.047 19.3898C53.907 19.7298 53.7204 20.0131 53.487 20.2398C53.2537 20.4598 52.9837 20.6265 52.677 20.7398C52.3704 20.8465 52.047 20.8998 51.707 20.8998ZM51.707 20.0998C51.907 20.0998 52.107 20.0665 52.307 19.9998C52.507 19.9265 52.6837 19.8165 52.837 19.6698C52.9904 19.5165 53.1137 19.3198 53.207 19.0798C53.307 18.8398 53.357 18.5465 53.357 18.1998V17.9998C53.357 17.6798 53.307 17.4065 53.207 17.1798C53.1137 16.9531 52.9904 16.7665 52.837 16.6198C52.6837 16.4731 52.507 16.3665 52.307 16.2998C52.107 16.2331 51.907 16.1998 51.707 16.1998C51.507 16.1998 51.307 16.2331 51.107 16.2998C50.907 16.3665 50.7304 16.4731 50.577 16.6198C50.4237 16.7665 50.297 16.9531 50.197 17.1798C50.1037 17.4065 50.057 17.6798 50.057 17.9998V18.1998C50.057 18.5465 50.1037 18.8398 50.197 19.0798C50.297 19.3198 50.4237 19.5165 50.577 19.6698C50.7304 19.8165 50.907 19.9265 51.107 19.9998C51.307 20.0665 51.507 20.0998 51.707 20.0998ZM57.5531 20.8998C57.2131 20.8998 56.8965 20.8465 56.6031 20.7398C56.3098 20.6265 56.0565 20.4598 55.8431 20.2398C55.6298 20.0131 55.4598 19.7298 55.3331 19.3898C55.2131 19.0498 55.1531 18.6531 55.1531 18.1998V17.9998C55.1531 17.5731 55.2198 17.1965 55.3531 16.8698C55.4865 16.5431 55.6631 16.2731 55.8831 16.0598C56.1031 15.8398 56.3565 15.6765 56.6431 15.5698C56.9365 15.4565 57.2398 15.3998 57.5531 15.3998C57.8665 15.3998 58.1465 15.4431 58.3931 15.5298C58.6465 15.6165 58.8631 15.7365 59.0431 15.8898C59.2298 16.0431 59.3798 16.2231 59.4931 16.4298C59.6131 16.6365 59.6998 16.8598 59.7531 17.0998H58.8531C58.7998 16.9731 58.7365 16.8565 58.6631 16.7498C58.5965 16.6365 58.5098 16.5398 58.4031 16.4598C58.3031 16.3798 58.1831 16.3165 58.0431 16.2698C57.9031 16.2231 57.7398 16.1998 57.5531 16.1998C57.3598 16.1998 57.1731 16.2365 56.9931 16.3098C56.8131 16.3765 56.6531 16.4831 56.5131 16.6298C56.3731 16.7698 56.2598 16.9531 56.1731 17.1798C56.0931 17.4065 56.0531 17.6798 56.0531 17.9998V18.1998C56.0531 18.5398 56.0931 18.8331 56.1731 19.0798C56.2598 19.3198 56.3731 19.5165 56.5131 19.6698C56.6531 19.8165 56.8131 19.9265 56.9931 19.9998C57.1731 20.0665 57.3598 20.0998 57.5531 20.0998C57.8798 20.0998 58.1531 20.0198 58.3731 19.8598C58.5998 19.6998 58.7598 19.4798 58.8531 19.1998H59.7531C59.6265 19.7265 59.3665 20.1431 58.9731 20.4498C58.5798 20.7498 58.1065 20.8998 57.5531 20.8998ZM62.1623 16.2798H60.3523V15.4998H64.8523V16.2798H63.0423V20.7998H62.1623V16.2798ZM66.75 22.8998C66.65 22.8998 66.55 22.8898 66.45 22.8698V22.0698C66.55 22.0898 66.65 22.0998 66.75 22.0998C66.85 22.0998 66.9367 22.0831 67.01 22.0498C67.0833 22.0165 67.1533 21.9531 67.22 21.8598C67.2867 21.7665 67.3567 21.6331 67.43 21.4598C67.51 21.2931 67.6 21.0731 67.7 20.7998L65.45 15.4998H66.43L68.15 19.7998L69.71 15.4998H70.65L68.65 20.7998C68.51 21.1731 68.3767 21.4931 68.25 21.7598C68.1233 22.0265 67.9867 22.2431 67.84 22.4098C67.7 22.5831 67.5433 22.7065 67.37 22.7798C67.1967 22.8598 66.99 22.8998 66.75 22.8998ZM71.6457 15.4998H76.0457V20.7998H75.1657V16.2798H72.5257V20.7998H71.6457V15.4998ZM77.6418 15.4998H78.5218V17.7098H81.2618V15.4998H82.1418V20.7998H81.2618V18.4898H78.5218V20.7998H77.6418V15.4998ZM85.9453 20.8998C85.6053 20.8998 85.282 20.8465 84.9753 20.7398C84.6686 20.6265 84.3986 20.4598 84.1653 20.2398C83.932 20.0131 83.7453 19.7298 83.6053 19.3898C83.4653 19.0498 83.3953 18.6531 83.3953 18.1998V17.9998C83.3953 17.5731 83.4653 17.1965 83.6053 16.8698C83.7453 16.5431 83.932 16.2731 84.1653 16.0598C84.3986 15.8398 84.6686 15.6765 84.9753 15.5698C85.282 15.4565 85.6053 15.3998 85.9453 15.3998C86.2853 15.3998 86.6086 15.4565 86.9153 15.5698C87.222 15.6765 87.492 15.8398 87.7253 16.0598C87.9586 16.2731 88.1453 16.5431 88.2853 16.8698C88.4253 17.1965 88.4953 17.5731 88.4953 17.9998V18.1998C88.4953 18.6531 88.4253 19.0498 88.2853 19.3898C88.1453 19.7298 87.9586 20.0131 87.7253 20.2398C87.492 20.4598 87.222 20.6265 86.9153 20.7398C86.6086 20.8465 86.2853 20.8998 85.9453 20.8998ZM85.9453 20.0998C86.1453 20.0998 86.3453 20.0665 86.5453 19.9998C86.7453 19.9265 86.922 19.8165 87.0753 19.6698C87.2286 19.5165 87.352 19.3198 87.4453 19.0798C87.5453 18.8398 87.5953 18.5465 87.5953 18.1998V17.9998C87.5953 17.6798 87.5453 17.4065 87.4453 17.1798C87.352 16.9531 87.2286 16.7665 87.0753 16.6198C86.922 16.4731 86.7453 16.3665 86.5453 16.2998C86.3453 16.2331 86.1453 16.1998 85.9453 16.1998C85.7453 16.1998 85.5453 16.2331 85.3453 16.2998C85.1453 16.3665 84.9686 16.4731 84.8153 16.6198C84.662 16.7665 84.5353 16.9531 84.4353 17.1798C84.342 17.4065 84.2953 17.6798 84.2953 17.9998V18.1998C84.2953 18.5465 84.342 18.8398 84.4353 19.0798C84.5353 19.3198 84.662 19.5165 84.8153 19.6698C84.9686 19.8165 85.1453 19.9265 85.3453 19.9998C85.5453 20.0665 85.7453 20.0998 85.9453 20.0998ZM92.2414 15.4998H94.5414C95.1947 15.4998 95.6747 15.6365 95.9814 15.9098C96.2881 16.1765 96.4414 16.5231 96.4414 16.9498C96.4414 17.0631 96.4214 17.1798 96.3814 17.2998C96.3414 17.4131 96.2847 17.5198 96.2114 17.6198C96.1447 17.7198 96.0614 17.8065 95.9614 17.8798C95.8681 17.9531 95.7614 18.0098 95.6414 18.0498C95.9681 18.1298 96.2147 18.2831 96.3814 18.5098C96.5547 18.7298 96.6414 18.9898 96.6414 19.2898C96.6414 19.7498 96.4881 20.1165 96.1814 20.3898C95.8747 20.6631 95.3947 20.7998 94.7414 20.7998H92.2414V15.4998ZM94.7414 20.0198C95.1147 20.0198 95.3781 19.9531 95.5314 19.8198C95.6847 19.6865 95.7614 19.4965 95.7614 19.2498C95.7614 18.9965 95.6847 18.8031 95.5314 18.6698C95.3781 18.5298 95.1147 18.4598 94.7414 18.4598H93.1214V20.0198H94.7414ZM94.5414 17.7398C94.9214 17.7398 95.1847 17.6731 95.3314 17.5398C95.4847 17.4065 95.5614 17.2231 95.5614 16.9898C95.5614 16.7698 95.4847 16.5965 95.3314 16.4698C95.1847 16.3431 94.9214 16.2798 94.5414 16.2798H93.1214V17.7398H94.5414Z" fill="white"/>
<path d="M46.68 37.9537C46.008 37.9537 45.3967 37.851 44.846 37.6457C44.3047 37.431 43.8427 37.1137 43.46 36.6937C43.0773 36.2737 42.7833 35.7557 42.578 35.1397C42.3727 34.5144 42.27 33.791 42.27 32.9697V32.6897C42.27 31.9244 42.3727 31.243 42.578 30.6457C42.7927 30.039 43.0913 29.5304 43.474 29.1197C43.866 28.6997 44.3327 28.3824 44.874 28.1677C45.4153 27.953 46.0173 27.8457 46.68 27.8457C47.6973 27.8457 48.5513 28.1117 49.242 28.6437C49.9327 29.1664 50.3853 29.9317 50.6 30.9397H48.78C48.6773 30.6317 48.5513 30.375 48.402 30.1697C48.2527 29.9644 48.0847 29.801 47.898 29.6797C47.7113 29.549 47.5107 29.4604 47.296 29.4137C47.0907 29.3577 46.8853 29.3297 46.68 29.3297C45.8867 29.3297 45.2473 29.605 44.762 30.1557C44.2767 30.697 44.034 31.5417 44.034 32.6897V32.9697C44.034 33.567 44.0993 34.085 44.23 34.5237C44.3607 34.9624 44.5427 35.3264 44.776 35.6157C45.0093 35.905 45.2893 36.1197 45.616 36.2597C45.9427 36.3997 46.2973 36.4697 46.68 36.4697C47.408 36.4697 47.9867 36.2784 48.416 35.8957C48.8547 35.513 49.1113 34.911 49.186 34.0897H46.96V32.6897H50.81V33.2497C50.81 34.0337 50.712 34.7197 50.516 35.3077C50.3293 35.8957 50.0587 36.3857 49.704 36.7777C49.3493 37.1697 48.9153 37.4637 48.402 37.6597C47.898 37.8557 47.324 37.9537 46.68 37.9537ZM55.7078 37.9537C55.1945 37.9537 54.7138 37.8744 54.2658 37.7157C53.8271 37.5477 53.4445 37.305 53.1178 36.9877C52.7911 36.6704 52.5345 36.2784 52.3478 35.8117C52.1611 35.3357 52.0678 34.785 52.0678 34.1597V33.8797C52.0678 33.2917 52.1611 32.7737 52.3478 32.3257C52.5345 31.8684 52.7911 31.4857 53.1178 31.1777C53.4445 30.8604 53.8271 30.6224 54.2658 30.4637C54.7138 30.305 55.1945 30.2257 55.7078 30.2257C56.2211 30.2257 56.6971 30.305 57.1358 30.4637C57.5838 30.6224 57.9711 30.8604 58.2978 31.1777C58.6245 31.4857 58.8811 31.8684 59.0678 32.3257C59.2545 32.7737 59.3478 33.2917 59.3478 33.8797V34.1597C59.3478 34.785 59.2545 35.3357 59.0678 35.8117C58.8811 36.2784 58.6245 36.6704 58.2978 36.9877C57.9711 37.305 57.5838 37.5477 57.1358 37.7157C56.6971 37.8744 56.2211 37.9537 55.7078 37.9537ZM55.7078 36.6097C55.9785 36.6097 56.2351 36.563 56.4778 36.4697C56.7298 36.3764 56.9491 36.2317 57.1358 36.0357C57.3318 35.8397 57.4858 35.5877 57.5978 35.2797C57.7191 34.9717 57.7798 34.5984 57.7798 34.1597V33.8797C57.7798 33.4784 57.7191 33.133 57.5978 32.8437C57.4858 32.5544 57.3318 32.3164 57.1358 32.1297C56.9491 31.943 56.7298 31.803 56.4778 31.7097C56.2351 31.6164 55.9785 31.5697 55.7078 31.5697C55.4371 31.5697 55.1758 31.6164 54.9238 31.7097C54.6811 31.803 54.4618 31.943 54.2658 32.1297C54.0791 32.3164 53.9251 32.5544 53.8038 32.8437C53.6918 33.133 53.6358 33.4784 53.6358 33.8797V34.1597C53.6358 34.5984 53.6918 34.9717 53.8038 35.2797C53.9251 35.5877 54.0791 35.8397 54.2658 36.0357C54.4618 36.2317 54.6811 36.3764 54.9238 36.4697C55.1758 36.563 55.4371 36.6097 55.7078 36.6097ZM64.1023 37.9537C63.589 37.9537 63.1083 37.8744 62.6603 37.7157C62.2217 37.5477 61.839 37.305 61.5123 36.9877C61.1857 36.6704 60.929 36.2784 60.7423 35.8117C60.5557 35.3357 60.4623 34.785 60.4623 34.1597V33.8797C60.4623 33.2917 60.5557 32.7737 60.7423 32.3257C60.929 31.8684 61.1857 31.4857 61.5123 31.1777C61.839 30.8604 62.2217 30.6224 62.6603 30.4637C63.1083 30.305 63.589 30.2257 64.1023 30.2257C64.6157 30.2257 65.0917 30.305 65.5303 30.4637C65.9783 30.6224 66.3657 30.8604 66.6923 31.1777C67.019 31.4857 67.2757 31.8684 67.4623 32.3257C67.649 32.7737 67.7423 33.2917 67.7423 33.8797V34.1597C67.7423 34.785 67.649 35.3357 67.4623 35.8117C67.2757 36.2784 67.019 36.6704 66.6923 36.9877C66.3657 37.305 65.9783 37.5477 65.5303 37.7157C65.0917 37.8744 64.6157 37.9537 64.1023 37.9537ZM64.1023 36.6097C64.373 36.6097 64.6297 36.563 64.8723 36.4697C65.1243 36.3764 65.3437 36.2317 65.5303 36.0357C65.7263 35.8397 65.8803 35.5877 65.9923 35.2797C66.1137 34.9717 66.1743 34.5984 66.1743 34.1597V33.8797C66.1743 33.4784 66.1137 33.133 65.9923 32.8437C65.8803 32.5544 65.7263 32.3164 65.5303 32.1297C65.3437 31.943 65.1243 31.803 64.8723 31.7097C64.6297 31.6164 64.373 31.5697 64.1023 31.5697C63.8317 31.5697 63.5703 31.6164 63.3183 31.7097C63.0757 31.803 62.8563 31.943 62.6603 32.1297C62.4737 32.3164 62.3197 32.5544 62.1983 32.8437C62.0863 33.133 62.0303 33.4784 62.0303 33.8797V34.1597C62.0303 34.5984 62.0863 34.9717 62.1983 35.2797C62.3197 35.5877 62.4737 35.8397 62.6603 36.0357C62.8563 36.2317 63.0757 36.3764 63.3183 36.4697C63.5703 36.563 63.8317 36.6097 64.1023 36.6097ZM72.3569 40.7537C71.7782 40.7537 71.2929 40.6977 70.9009 40.5857C70.5089 40.483 70.1869 40.3337 69.9349 40.1377C69.6829 39.9417 69.4962 39.7084 69.3749 39.4377C69.2535 39.1764 69.1742 38.887 69.1369 38.5697H70.7049C70.7422 38.6817 70.7935 38.789 70.8589 38.8917C70.9335 39.0037 71.0315 39.1017 71.1529 39.1857C71.2835 39.2697 71.4469 39.335 71.6429 39.3817C71.8389 39.4377 72.0769 39.4657 72.3569 39.4657C73.0569 39.4657 73.5702 39.2977 73.8969 38.9617C74.2235 38.6257 74.3869 38.145 74.3869 37.5197V36.4697C74.1535 36.8617 73.8362 37.1837 73.4349 37.4357C73.0335 37.6877 72.5529 37.8137 71.9929 37.8137C71.5169 37.8137 71.0875 37.7344 70.7049 37.5757C70.3222 37.417 69.9909 37.1837 69.7109 36.8757C69.4402 36.5677 69.2302 36.1804 69.0809 35.7137C68.9315 35.247 68.8569 34.7057 68.8569 34.0897V33.8097C68.8569 33.231 68.9315 32.7224 69.0809 32.2837C69.2302 31.8357 69.4402 31.4624 69.7109 31.1637C69.9909 30.8557 70.3222 30.6224 70.7049 30.4637C71.0875 30.305 71.5122 30.2257 71.9789 30.2257C72.5949 30.2257 73.1222 30.3657 73.5609 30.6457C74.0089 30.9257 74.3215 31.2524 74.4989 31.6257V30.3797H75.9269V37.4497C75.9269 38.495 75.6282 39.307 75.0309 39.8857C74.4335 40.4644 73.5422 40.7537 72.3569 40.7537ZM72.3429 36.4697C72.6135 36.4697 72.8702 36.4277 73.1129 36.3437C73.3649 36.2597 73.5842 36.1337 73.7709 35.9657C73.9575 35.7884 74.1069 35.5737 74.2189 35.3217C74.3309 35.0604 74.3869 34.7617 74.3869 34.4257V33.4457C74.3869 33.147 74.3309 32.881 74.2189 32.6477C74.1069 32.4144 73.9529 32.2184 73.7569 32.0597C73.5702 31.901 73.3509 31.7797 73.0989 31.6957C72.8562 31.6117 72.6042 31.5697 72.3429 31.5697C71.7549 31.5697 71.2882 31.7564 70.9429 32.1297C70.5975 32.4937 70.4249 33.0537 70.4249 33.8097V34.0897C70.4249 34.883 70.6022 35.4804 70.9569 35.8817C71.3115 36.2737 71.7735 36.4697 72.3429 36.4697ZM80.2702 37.8697C79.8688 37.8697 79.5235 37.8277 79.2342 37.7437C78.9448 37.6597 78.7022 37.5244 78.5062 37.3377C78.3195 37.1417 78.1795 36.8897 78.0862 36.5817C78.0022 36.2644 77.9602 35.8817 77.9602 35.4337V27.9997H79.5002V35.3217C79.5002 35.779 79.5748 36.0964 79.7242 36.2737C79.8735 36.4417 80.1488 36.5257 80.5502 36.5257C80.6528 36.5257 80.7415 36.5257 80.8162 36.5257C80.8908 36.5164 80.9655 36.507 81.0402 36.4977V37.8277C80.9655 37.8464 80.8442 37.8557 80.6762 37.8557C80.5082 37.865 80.3728 37.8697 80.2702 37.8697ZM85.5262 37.9537C85.0315 37.9537 84.5648 37.879 84.1262 37.7297C83.6875 37.571 83.3002 37.3377 82.9642 37.0297C82.6375 36.7124 82.3762 36.3157 82.1802 35.8397C81.9842 35.3637 81.8862 34.8037 81.8862 34.1597V33.8797C81.8862 33.2637 81.9795 32.727 82.1662 32.2697C82.3528 31.8124 82.6048 31.4344 82.9222 31.1357C83.2488 30.8277 83.6222 30.599 84.0422 30.4497C84.4622 30.3004 84.9102 30.2257 85.3862 30.2257C86.5155 30.2257 87.3788 30.529 87.9762 31.1357C88.5828 31.7424 88.8862 32.6104 88.8862 33.7397V34.5237H83.4542C83.4635 34.9064 83.5242 35.233 83.6362 35.5037C83.7575 35.765 83.9115 35.9797 84.0982 36.1477C84.2942 36.3064 84.5135 36.423 84.7562 36.4977C85.0082 36.5724 85.2648 36.6097 85.5262 36.6097C86.0582 36.6097 86.4455 36.5257 86.6882 36.3577C86.9402 36.1897 87.1128 35.9704 87.2062 35.6997H88.7462C88.5968 36.437 88.2282 36.997 87.6402 37.3797C87.0615 37.7624 86.3568 37.9537 85.5262 37.9537ZM85.4562 31.5697C85.1948 31.5697 84.9428 31.6024 84.7002 31.6677C84.4668 31.733 84.2568 31.8404 84.0702 31.9897C83.8928 32.1297 83.7482 32.3164 83.6362 32.5497C83.5242 32.7737 83.4635 33.049 83.4542 33.3757H87.3462C87.3368 33.0304 87.2808 32.741 87.1782 32.5077C87.0848 32.2744 86.9542 32.0877 86.7862 31.9477C86.6182 31.8077 86.4175 31.7097 86.1842 31.6537C85.9602 31.5977 85.7175 31.5697 85.4562 31.5697ZM94.2073 27.9997H97.7773C99.0933 27.9997 100.064 28.2844 100.689 28.8537C101.315 29.4137 101.627 30.1697 101.627 31.1217C101.627 32.0737 101.315 32.8344 100.689 33.4037C100.064 33.9637 99.0933 34.2437 97.7773 34.2437H95.8873V37.7997H94.2073V27.9997ZM97.6373 32.7877C98.0759 32.7877 98.4446 32.755 98.7433 32.6897C99.0419 32.615 99.2799 32.5124 99.4573 32.3817C99.6346 32.2417 99.7606 32.069 99.8353 31.8637C99.9099 31.649 99.9473 31.4017 99.9473 31.1217C99.9473 30.8417 99.9099 30.599 99.8353 30.3937C99.7606 30.1884 99.6346 30.0157 99.4573 29.8757C99.2799 29.7357 99.0419 29.633 98.7433 29.5677C98.4446 29.493 98.0759 29.4557 97.6373 29.4557H95.8873V32.7877H97.6373ZM105.549 37.8697C105.148 37.8697 104.803 37.8277 104.513 37.7437C104.224 37.6597 103.981 37.5244 103.785 37.3377C103.599 37.1417 103.459 36.8897 103.365 36.5817C103.281 36.2644 103.239 35.8817 103.239 35.4337V27.9997H104.779V35.3217C104.779 35.779 104.854 36.0964 105.003 36.2737C105.153 36.4417 105.428 36.5257 105.829 36.5257C105.932 36.5257 106.021 36.5257 106.095 36.5257C106.17 36.5164 106.245 36.507 106.319 36.4977V37.8277C106.245 37.8464 106.123 37.8557 105.955 37.8557C105.787 37.865 105.652 37.8697 105.549 37.8697ZM109.892 37.9537C109.491 37.9537 109.132 37.8977 108.814 37.7857C108.506 37.6644 108.245 37.501 108.03 37.2957C107.816 37.081 107.652 36.8337 107.54 36.5537C107.428 36.2737 107.372 35.9657 107.372 35.6297C107.372 34.8924 107.592 34.3464 108.03 33.9917C108.469 33.6277 109.113 33.4457 109.962 33.4457H112.272V33.0397C112.272 32.4797 112.146 32.097 111.894 31.8917C111.652 31.677 111.264 31.5697 110.732 31.5697C110.256 31.5697 109.906 31.6444 109.682 31.7937C109.458 31.943 109.328 32.1484 109.29 32.4097H107.792C107.811 32.0924 107.89 31.803 108.03 31.5417C108.18 31.271 108.38 31.0377 108.632 30.8417C108.894 30.6457 109.206 30.4964 109.57 30.3937C109.934 30.2817 110.345 30.2257 110.802 30.2257C111.26 30.2257 111.67 30.277 112.034 30.3797C112.408 30.4824 112.725 30.6457 112.986 30.8697C113.248 31.0844 113.448 31.3644 113.588 31.7097C113.738 32.055 113.812 32.4704 113.812 32.9557V35.9097C113.812 36.3017 113.817 36.647 113.826 36.9457C113.836 37.235 113.859 37.5197 113.896 37.7997H112.496C112.468 37.585 112.445 37.403 112.426 37.2537C112.417 37.1044 112.412 36.9177 112.412 36.6937C112.235 37.039 111.927 37.3377 111.488 37.5897C111.059 37.8324 110.527 37.9537 109.892 37.9537ZM110.312 36.6097C110.574 36.6097 110.821 36.577 111.054 36.5117C111.297 36.437 111.507 36.3344 111.684 36.2037C111.862 36.0637 112.002 35.8957 112.104 35.6997C112.216 35.4944 112.272 35.261 112.272 34.9997V34.5937H110.242C109.85 34.5937 109.533 34.6777 109.29 34.8457C109.057 35.0137 108.94 35.261 108.94 35.5877C108.94 35.8957 109.048 36.143 109.262 36.3297C109.486 36.5164 109.836 36.6097 110.312 36.6097ZM116.691 40.7537C116.551 40.7537 116.411 40.7397 116.271 40.7117V39.3677C116.411 39.3957 116.551 39.4097 116.691 39.4097C116.85 39.4097 116.981 39.3817 117.083 39.3257C117.195 39.279 117.293 39.1904 117.377 39.0597C117.471 38.9384 117.559 38.775 117.643 38.5697C117.737 38.3644 117.839 38.1077 117.951 37.7997L114.801 30.3797H116.481L118.749 36.1197L120.793 30.3797H122.361L119.491 37.7997C119.286 38.3224 119.095 38.7704 118.917 39.1437C118.74 39.517 118.544 39.8204 118.329 40.0537C118.124 40.2964 117.891 40.4737 117.629 40.5857C117.368 40.6977 117.055 40.7537 116.691 40.7537Z" fill="white"/>
</g>
<defs>
<filter id="filter0_dd_1_1447" x="15.5" y="15.689" width="17.0563" height="19.2216" filterUnits="userSpaceOnUse" color-interpolation-filters="sRGB">
<feFlood flood-opacity="0" result="BackgroundImageFix"/>
<feColorMatrix in="SourceAlpha" type="matrix" values="0 0 0 0 0 0 0 0 0 0 0 0 0 0 0 0 0 0 127 0" result="hardAlpha"/>
<feOffset dy="-0.110805"/>
<feComposite in2="hardAlpha" operator="out"/>
<feColorMatrix type="matrix" values="0 0 0 0 0 0 0 0 0 0 0 0 0 0 0 0 0 0 0.12 0"/>
<feBlend mode="normal" in2="BackgroundImageFix" result="effect1_dropShadow_1_1447"/>
<feColorMatrix in="SourceAlpha" type="matrix" values="0 0 0 0 0 0 0 0 0 0 0 0 0 0 0 0 0 0 127 0" result="hardAlpha"/>
<feOffset dy="0.110805"/>
<feComposite in2="hardAlpha" operator="out"/>
<feColorMatrix type="matrix" values="0 0 0 0 1 0 0 0 0 1 0 0 0 0 1 0 0 0 0.25 0"/>
<feBlend mode="normal" in2="effect1_dropShadow_1_1447" result="effect2_dropShadow_1_1447"/>
<feBlend mode="normal" in="SourceGraphic" in2="effect2_dropShadow_1_1447" result="shape"/>
</filter>
<filter id="filter1_d_1_1447" x="15.8423" y="25.189" width="12.326" height="9.6108" filterUnits="userSpaceOnUse" color-interpolation-filters="sRGB">
<feFlood flood-opacity="0" result="BackgroundImageFix"/>
<feColorMatrix in="SourceAlpha" type="matrix" values="0 0 0 0 0 0 0 0 0 0 0 0 0 0 0 0 0 0 127 0" result="hardAlpha"/>
<feOffset dy="-0.110805"/>
<feComposite in2="hardAlpha" operator="out"/>
<feColorMatrix type="matrix" values="0 0 0 0 0 0 0 0 0 0 0 0 0 0 0 0 0 0 0.08 0"/>
<feBlend mode="normal" in2="BackgroundImageFix" result="effect1_dropShadow_1_1447"/>
<feBlend mode="normal" in="SourceGraphic" in2="effect1_dropShadow_1_1447" result="shape"/>
</filter>
<linearGradient id="paint0_linear_1_1447" x1="24.2372" y1="16.958" x2="11.8403" y2="29.3549" gradientUnits="userSpaceOnUse">
<stop stop-color="#00A0FF"/>
<stop offset="0.0066" stop-color="#00A1FF"/>
<stop offset="0.2601" stop-color="#00BEFF"/>
<stop offset="0.5122" stop-color="#00D2FF"/>
<stop offset="0.7604" stop-color="#00DFFF"/>
<stop offset="1" stop-color="#00E3FF"/>
</linearGradient>
<linearGradient id="paint1_linear_1_1447" x1="33.1257" y1="25.2993" x2="15.2521" y2="25.2993" gradientUnits="userSpaceOnUse">
<stop stop-color="#FFE000"/>
<stop offset="0.4087" stop-color="#FFBD00"/>
<stop offset="0.7754" stop-color="#FFA500"/>
<stop offset="1" stop-color="#FF9C00"/>
</linearGradient>
<linearGradient id="paint2_linear_1_1447" x1="26.4738" y1="26.9943" x2="9.66198" y2="43.8061" gradientUnits="userSpaceOnUse">
<stop stop-color="#FF3A44"/>
<stop offset="1" stop-color="#C31162"/>
</linearGradient>
<linearGradient id="paint3_linear_1_1447" x1="13.5238" y1="10.6554" x2="21.0307" y2="18.1623" gradientUnits="userSpaceOnUse">
<stop stop-color="#32A071"/>
<stop offset="0.0685" stop-color="#2DA771"/>
<stop offset="0.4762" stop-color="#15CF74"/>
<stop offset="0.8009" stop-color="#06E775"/>
<stop offset="1" stop-color="#00F076"/>
</linearGradient>
<clipPath id="clip0_1_1447">
<rect width="140" height="50" fill="white" transform="translate(0.5 0.799805)"/>
</clipPath>
</defs>
</svg>
